<?xml version="1.0" encoding="utf-8"?>
<!-- Uploaded to: SVG Repo, www.svgrepo.com, Generator: SVG Repo Mixer Tools -->
<svg width="800px" height="800px" viewBox="0 0 1024 1024" class="icon"  version="1.1" xmlns="http://www.w3.org/2000/svg"><path d="M993.763 493.538v35c0 13.331-6.04 26.664-18.135 37.137-140.149 121.422-280.35 242.795-420.49 364.219-11.813 10.237-25.813 15.501-42.454 15.501v-35c16.644 0 30.641-5.264 42.454-15.501C695.28 773.47 835.474 652.092 975.628 530.677c12.095-10.475 18.135-23.803 18.135-37.139z" fill="#E35B6D" /><path d="M30.239 528.367v-3.5-1.75-3.5-3.5-1.75-3.5-3.5-1.75-3.5-3.5-1.75-3.5c0 14.707 6.701 29.313 19.037 40.019 138.449 120.064 277.049 239.996 415.562 360.02 13.002 11.26 28.74 16.466 47.853 16.994v35c-19.108-0.528-34.851-5.734-47.853-16.994C326.325 808.382 187.725 688.45 49.276 568.386c-12.337-10.705-19.037-25.312-19.037-40.019z" fill="#E35B6D" /><path d="M510.786 76.601c16.263 0 32.546 5.362 44.946 16.097 139.949 121.188 279.9 242.376 419.818 363.586 24.241 20.995 24.295 53.413 0.079 74.396C835.48 652.101 695.28 773.478 555.141 894.898c-11.814 10.238-25.813 15.502-42.451 15.502-19.109-0.528-34.853-5.734-47.854-16.994C326.324 773.382 187.724 653.45 49.275 533.386c-19.581-16.987-24.96-43.81-11.895-65.251 3.919-6.438 8.669-11.829 14.465-16.849C189.954 331.734 328.024 212.152 466.107 92.567c12.296-10.64 28.478-15.966 44.679-15.966z" fill="#F6BCB1" /><path d="M664.943 356.196v16.8c-0.002 2.336-0.756 3.363-3.376 4.085-76.601 21.003-153.155 42.094-229.724 63.159-0.968 0.271-1.984 0.428-3.216 0.688v-16.8c1.229-0.263 2.246-0.418 3.216-0.688 76.568-21.064 153.125-42.155 229.724-63.159 2.621-0.722 3.374-1.748 3.376-4.085z" fill="#DA4D5E" /><path d="M664.943 356.196v16.8c0 0.183-0.004 0.357-0.015 0.523v-16.8c0.011-0.165 0.015-0.341 0.015-0.523" fill="#DA4D5E" /><path d="M664.928 356.72l0.002 16.8c-0.057 0.928-0.269 1.625-0.729 2.169v-16.8c0.46-0.547 0.672-1.243 0.727-2.169M664.199 358.889v16.8a3.098 3.098 0 0 1-0.707 0.609v-16.8c0.283-0.183 0.516-0.383 0.707-0.609M663.492 359.498v16.8a5.81 5.81 0 0 1-1.082 0.518v-16.8a5.81 5.81 0 0 0 1.082-0.518M662.41 360.014v16.8c-0.258 0.094-0.538 0.183-0.843 0.266-76.601 21.003-153.155 42.095-229.724 63.159-0.968 0.271-1.984 0.428-3.216 0.688v-16.8c1.229-0.263 2.246-0.418 3.216-0.688 76.568-21.064 153.125-42.155 229.724-63.159 0.305-0.082 0.585-0.173 0.843-0.266" fill="#DA4D5E" /><path d="M433.428 386.949v-0.031-0.032-0.032-0.033-0.032-0.031-0.031-0.031-1.935-2.05-2.13-2.166-2.166-2.125-2.047-1.929c75.855-20.801 151.683-41.685 227.528-62.555V307.593l0.874-0.239c0.838-0.229 1.723-0.297 2.822-0.48v16.8c-1.1 0.182-1.984 0.251-2.822 0.479-76.139 20.948-152.255 41.916-228.402 62.796z" fill="#DA4D5E" /><path d="M664.65 306.875v16.8c-1.099 0.182-1.983 0.251-2.823 0.48-76.72 21.108-153.417 42.233-230.146 63.271-0.29 0.08-0.554 0.164-0.799 0.254v-16.8a10.7 10.7 0 0 1 0.799-0.253c76.729-21.038 153.428-42.164 230.146-63.271 0.84-0.23 1.726-0.298 2.823-0.481" fill="#DA4D5E" /><path d="M664.652 306.875c0.089 1.029 0.229 1.901 0.229 2.768 0.002 1.94 0.002 3.879 0.002 5.82 0 4.851-0.005 9.7-0.005 14.55-0.002 8.73 0.007 17.458 0.063 26.184-0.003 2.337-0.757 3.363-3.376 4.085-76.601 21.003-153.156 42.094-229.724 63.159-0.968 0.271-1.984 0.428-3.216 0.688-0.071-1.091-0.193-1.963-0.193-2.83-0.002-2.91-0.005-5.819-0.005-8.729l0.001-11.642c0-8.729-0.005-17.462-0.058-26.191 0-2.286 0.658-3.381 3.307-4.112 76.729-21.038 153.429-42.163 230.146-63.271 0.844-0.228 1.73-0.296 2.829-0.479z" fill="#F08E91" /><path d="M664.641 383.057v16.8c-1.793 0.454-3.446 0.847-5.08 1.301-75.57 20.812-151.14 41.648-226.751 62.362-3.519 0.962-4.475 2.263-4.475 5.369v-16.8c0-3.107 0.957-4.408 4.475-5.369 75.611-20.714 151.181-41.553 226.751-62.363 1.632-0.454 3.287-0.845 5.08-1.3z" fill="#DA4D5E" /><path d="M664.641 383.057v16.8c-1.793 0.454-3.446 0.847-5.08 1.301-75.57 20.812-151.14 41.648-226.751 62.362-0.435 0.119-0.831 0.242-1.189 0.377v-16.801c0.358-0.133 0.756-0.257 1.189-0.376 75.611-20.714 151.181-41.553 226.751-62.363 1.632-0.454 3.287-0.845 5.08-1.3M431.62 447.096v16.8a7.338 7.338 0 0 0-1.419 0.678v-16.8a7.368 7.368 0 0 1 1.419-0.678M430.201 447.774v16.8a3.97 3.97 0 0 0-0.908 0.777v-16.8c0.245-0.287 0.544-0.544 0.908-0.777M429.293 448.552v16.8c-0.595 0.706-0.867 1.604-0.938 2.811v-16.8c0.072-1.208 0.344-2.107 0.938-2.811M428.354 451.362v16.8c-0.014 0.23-0.019 0.473-0.019 0.729v-16.8c0-0.256 0.007-0.5 0.019-0.729" fill="#DA4D5E" /><path d="M614.85 539.921c-1.893 0.007-3.764 0.07-5.619 0.193-0.256-5.581-0.611-11.156-0.904-16.736a89.898 89.898 0 0 1 6.521-0.257h0.354v16.8h-0.352z" fill="#DA4D5E" /><path d="M615.202 523.121v16.8h-0.354c-3.782 0.014-7.493 0.252-11.111 0.745v-16.8c3.62-0.495 7.329-0.731 11.111-0.745h0.354" fill="#DA4D5E" /><path d="M609.23 540.114c-10.478 0.693-20.293 3.312-29.015 8.597-0.139-5.805-0.2-10.793-0.203-16.674 8.52-5.218 18.094-7.867 28.313-8.659 0.294 5.58 0.651 11.155 0.905 16.736z" fill="#DA4D5E" /><path d="M615.202 523.121v16.8h-0.354c-3.782 0.014-7.493 0.252-11.111 0.745v-16.8c3.62-0.495 7.329-0.731 11.111-0.745h0.354M603.735 523.866v16.8c-4.762 0.651-9.363 1.748-13.763 3.362v-16.801c4.401-1.614 9.003-2.709 13.763-3.361" fill="#DA4D5E" /><path d="M589.974 527.229v16.8a55.901 55.901 0 0 0-10.853 5.363v-16.801a55.955 55.955 0 0 1 10.853-5.362" fill="#DA4D5E" /><path d="M428.354 470.579v16.8c0 25.778-0.096 51.556-0.096 77.331v-16.8c0-25.776 0.096-51.553 0.096-77.331z" fill="#DA4D5E" /><path d="M428.354 470.579v16.8c0 25.778-0.096 51.556-0.096 77.331v-16.8c0-25.776 0.096-51.553 0.096-77.331" fill="#DA4D5E" /><path d="M616.641 539.933a76.739 76.739 0 0 0-1.438-0.012v-16.8c0.479 0 0.96 0.003 1.438 0.011 13.033 0.2 25.33 3.106 35.823 10.31 8.45 5.803 12.445 12.474 12.497 19.044v16.8c-0.052-6.567-4.047-13.241-12.497-19.043-10.493-7.205-22.79-10.111-35.823-10.31z" fill="#DA4D5E" /><path d="M664.961 552.484v16.8c-0.052-6.567-4.047-13.241-12.497-19.043-10.493-7.204-22.79-10.11-35.823-10.31a76.739 76.739 0 0 0-1.438-0.012v-16.8c0.479 0 0.96 0.003 1.438 0.011 13.033 0.2 25.33 3.106 35.823 10.31 8.45 5.803 12.445 12.475 12.497 19.044" fill="#DA4D5E" /><path d="M664.961 552.484v16.8c0.063 7.929-5.625 15.708-16.166 21.628-9.202 5.176-19.464 7.619-30.461 8.021v-16.801c10.995-0.4 21.259-2.845 30.461-8.021 10.541-5.919 16.226-13.698 16.166-21.627z" fill="#DA4D5E" /><path d="M664.961 552.484v16.8a17.3 17.3 0 0 1-0.028 1.116v-16.8a17.3 17.3 0 0 0 0.028-1.116M664.931 553.6v16.8c-0.247 4.077-2.008 8.095-5.164 11.815v-16.8c3.157-3.72 4.918-7.736 5.164-11.815" fill="#DA4D5E" /><path d="M659.769 565.417v16.8c-2.173 2.562-5.004 4.981-8.454 7.188v-16.802c3.45-2.205 6.281-4.625 8.454-7.186M651.313 572.604v16.801a53.572 53.572 0 0 1-2.519 1.508 58.65 58.65 0 0 1-8.531 3.928v-16.8a58.237 58.237 0 0 0 8.531-3.928 53.408 53.408 0 0 0 2.519-1.509" fill="#DA4D5E" /><path d="M640.264 578.04v16.8c-4.455 1.638-9.106 2.756-13.932 3.414v-16.8c4.824-0.658 9.478-1.776 13.932-3.414M626.332 581.454v16.8a80.75 80.75 0 0 1-7.998 0.68v-16.801a80.45 80.45 0 0 0 7.998-0.679" fill="#DA4D5E" /><path d="M615.199 523.121c0.48 0 0.963 0.003 1.441 0.01 13.032 0.201 25.33 3.107 35.823 10.311 8.449 5.803 12.445 12.474 12.496 19.044 0.062 7.929-5.625 15.708-16.166 21.628-9.202 5.176-19.464 7.619-30.461 8.021h-0.444c-0.411 0-0.819-0.001-1.229-0.005-17.063-0.146-32.878-3.387-44.644-15.298-4.515-4.573-6.694-9.591-6.658-14.545 0.041-5.979 3.315-11.867 9.623-16.771 11.403-8.869 25.084-12.34 39.869-12.395h0.35z" fill="#F09A9A" /><path d="M617.89 582.135v16.8c-0.411 0-0.819-0.001-1.229-0.006-17.063-0.145-32.879-3.386-44.644-15.297v-16.8c11.763 11.91 27.579 15.152 44.644 15.297 0.408 0.004 0.818 0.006 1.229 0.006z" fill="#DA4D5E" /><path d="M617.89 582.135v16.8c-0.411 0-0.819-0.001-1.229-0.006-17.063-0.145-32.879-3.386-44.644-15.297v-16.8c11.763 11.91 27.579 15.152 44.644 15.297 0.408 0.004 0.818 0.006 1.229 0.006" fill="#DA4D5E" /><path d="M539.445 569.734v-16.801c0 16.388 9.253 29.067 24.748 38.208 15.938 9.408 32.667 13.965 49.813 13.965 12.35 0 24.917-2.363 37.562-6.979 26.007-9.489 39.686-26.284 39.515-51.915v16.8c0.171 25.631-13.507 42.427-39.515 51.915-12.645 4.616-25.212 6.979-37.562 6.979-17.146 0-33.873-4.557-49.813-13.963-15.494-9.141-24.748-21.822-24.748-38.209z" fill="#DA4D5E" /><path d="M691.081 546.212v16.8c0.01 1.535-0.03 3.039-0.119 4.513v-16.801c0.089-1.473 0.129-2.977 0.119-4.512M690.962 550.724v16.801c-0.698 11.58-4.451 21.219-11.1 29.076v-16.8c6.649-7.859 10.402-17.497 11.1-29.077M679.862 579.801v16.8c-3.366 3.981-7.479 7.504-12.313 10.593v-16.801c4.836-3.089 8.947-6.613 12.313-10.592" fill="#DA4D5E" /><path d="M667.551 590.393v16.801c-4.604 2.941-9.869 5.485-15.769 7.654v-16.801c5.902-2.168 11.163-4.712 15.769-7.654" fill="#DA4D5E" /><path d="M651.784 598.047v16.801l-0.216 0.08c-8.037 2.936-16.043 4.959-23.983 6.042v-16.8c7.94-1.083 15.946-3.108 23.983-6.042l0.216-0.081M627.585 604.17v16.8c-4.55 0.622-9.078 0.938-13.578 0.938-17.146 0-33.873-4.557-49.812-13.963-15.494-9.143-24.748-21.822-24.748-38.209v-16.801c0 16.388 9.252 29.067 24.748 38.208 15.938 9.408 32.666 13.965 49.812 13.965 4.498-0.002 9.028-0.316 13.578-0.938" fill="#DA4D5E" /><path d="M313.48 624.167c0.009-8.399 0.009-8.399 0-16.8a66.06 66.06 0 0 1 1.545-1.081c7.764-5.269 16.148-8.391 24.991-9.781-1.815 11.282-1.822 11.396-2.243 17.191-8.021 1.545-15.645 4.569-22.75 9.39-0.515 0.352-1.03 0.712-1.543 1.081z" fill="#DA4D5E" /><path d="M341.374 596.304v16.802c-4.562 0.622-9.007 1.698-13.312 3.281v-16.8c4.305-1.583 8.751-2.659 13.312-3.283" fill="#DA4D5E" /><path d="M328.063 599.585v16.801a59.65 59.65 0 0 0-11.61 5.762v-16.801a59.792 59.792 0 0 1 11.61-5.762M316.451 605.348v16.802c-0.479 0.306-0.953 0.616-1.426 0.938-0.607 0.414-1.213 0.84-1.814 1.277-2.037 1.49-3.767 3.092-5.194 4.771v-16.8c1.428-1.681 3.157-3.283 5.194-4.772a72.853 72.853 0 0 1 1.814-1.276c0.473-0.322 0.948-0.635 1.426-0.94" fill="#DA4D5E" /><path d="M313.211 624.363c-6.806 4.98-10.191 11.204-10.229 17.444v-16.801c0.036-6.241 3.422-12.463 10.229-17.445 0.09-0.063 0.179-0.13 0.27-0.194 0.01 8.399 0.01 8.399 0 16.8-0.091 0.066-0.18 0.132-0.27 0.196z" fill="#DA4D5E" /><path d="M316.451 605.348v16.802c-0.479 0.306-0.953 0.616-1.426 0.938-0.607 0.414-1.213 0.84-1.814 1.277-2.037 1.49-3.767 3.092-5.194 4.771v-16.8c1.428-1.681 3.157-3.283 5.194-4.772a72.853 72.853 0 0 1 1.814-1.276c0.473-0.322 0.948-0.635 1.426-0.94M308.017 612.336v16.8c-3.101 3.653-4.762 7.678-5.005 11.734v-16.8c0.243-4.057 1.904-8.081 5.005-11.734M303.012 624.07v16.8c-0.018 0.313-0.028 0.626-0.029 0.938v-16.801c0-0.311 0.01-0.623 0.029-0.937" fill="#DA4D5E" /><path d="M366.605 613.722a106.34 106.34 0 0 0-4.306-0.609c0-5.602 0.011-11.203-0.015-16.804 1.433 0.174 2.874 0.378 4.32 0.613 11.229 1.824 21.329 5.883 28.89 13.602 4.681 4.784 6.966 9.967 6.942 15.052v16.8c0.022-5.084-2.262-10.266-6.942-15.051-7.559-7.721-17.66-11.779-28.889-13.603z" fill="#DA4D5E" /><path d="M402.438 625.574v16.8c0.023-5.084-2.261-10.266-6.941-15.051-7.562-7.719-17.661-11.777-28.89-13.603-5.091-0.825-10.093-1.272-14.986-1.285-0.372 0-0.583 0-0.801 0.003a73.789 73.789 0 0 0-9.445 0.665v-16.801a73.984 73.984 0 0 1 9.445-0.664c0.217-0.003 0.431-0.003 0.801-0.003 4.894 0.011 9.896 0.46 14.986 1.285 11.229 1.824 21.329 5.883 28.89 13.601 4.679 4.787 6.964 9.968 6.941 15.053" fill="#DA4D5E" /><path d="M352.716 654.808v16.801c-14.424-0.42-27.851-3.433-39.24-11.767-7.008-5.136-10.532-11.594-10.492-18.033v-16.801c-0.04 6.439 3.484 12.898 10.492 18.033 11.389 8.335 24.815 11.347 39.24 11.767z" fill="#DA4D5E" /><path d="M352.716 654.808v16.801c-14.424-0.42-27.851-3.433-39.24-11.767-7.008-5.136-10.532-11.594-10.492-18.033v-16.801c-0.04 6.439 3.484 12.898 10.492 18.033 11.389 8.335 24.815 11.347 39.24 11.767" fill="#DA4D5E" /><path d="M402.439 625.573v16.8c-0.029 6.139-3.42 12.137-10.018 17.135-11.371 8.606-24.949 11.654-39.706 12.101v-16.801c14.757-0.443 28.335-3.491 39.706-12.1 6.599-4.999 9.989-10.996 10.018-17.135z" fill="#DA4D5E" /><path d="M402.439 625.573v16.8c-0.002 0.311-0.012 0.618-0.03 0.927v-16.8c0.018-0.31 0.029-0.617 0.03-0.927M402.408 626.5v16.8c-0.238 3.996-1.907 7.916-4.964 11.519v-16.802c3.056-3.601 4.726-7.521 4.964-11.517M397.443 638.017v16.802c-1.392 1.636-3.064 3.207-5.023 4.69a53.157 53.157 0 0 1-3.438 2.396v-16.8a52.261 52.261 0 0 0 3.438-2.396c1.959-1.484 3.634-3.056 5.023-4.692" fill="#DA4D5E" /><path d="M388.983 645.102v16.801c-3.396 2.17-6.968 3.902-10.688 5.271v-16.8c3.721-1.369 7.292-3.103 10.688-5.272" fill="#DA4D5E" /><path d="M378.296 650.372v16.8c-4.698 1.726-9.635 2.867-14.76 3.568v-16.8c5.125-0.701 10.061-1.843 14.76-3.568M363.534 653.94v16.8c-3.521 0.482-7.132 0.755-10.82 0.867v-16.801c3.688-0.111 7.299-0.384 10.82-0.866" fill="#DA4D5E" /><path d="M351.465 595.637c5.048 0.011 10.052 0.458 15.141 1.285 11.229 1.824 21.329 5.883 28.89 13.602 4.681 4.784 6.967 9.966 6.942 15.051-0.028 6.139-3.42 12.136-10.018 17.135-11.371 8.607-24.949 11.653-39.706 12.1-14.424-0.42-27.851-3.431-39.24-11.767-7.008-5.134-10.532-11.594-10.492-18.033 0.038-6.242 3.425-12.464 10.23-17.445a72.803 72.803 0 0 1 1.814-1.275c10.863-7.371 22.943-10.543 35.792-10.646 0.216-0.007 0.431-0.007 0.647-0.007z" fill="#F09A9A" /><path d="M690.971 294.775c-0.162 83.813-0.464 167.625 0.11 251.438 0.171 25.631-13.507 42.426-39.515 51.915-12.645 4.615-25.213 6.979-37.562 6.979-17.146 0-33.873-4.557-49.813-13.965-16.38-9.663-25.783-23.28-24.655-41.055 0.998-15.605 10.09-27.672 24.736-35.964 16.498-9.341 33.301-13.884 50.289-13.884 15.563 0 31.28 3.81 47.082 11.237 0.778 0.377 1.555 0.76 2.339 1.115 0.657-43.086 0.657-86.079 0.657-129.536-1.794 0.454-3.447 0.847-5.08 1.301-75.571 20.811-151.141 41.648-226.75 62.363-3.52 0.961-4.476 2.262-4.476 5.369 0.122 55.617-0.413 111.232 0.313 166.838 0.332 25.353-13.297 41.93-38.827 51.488-12.802 4.787-25.524 7.221-38.035 7.221-17.093 0-33.793-4.539-49.792-13.813-22.024-12.771-30.502-34.665-21.572-54.202 7.107-15.541 20.969-25.307 38.527-31.001 11.633-3.773 23.146-5.692 34.497-5.692 15.819 0 31.325 3.732 46.415 11.388 0.513 0.263 1.038 0.495 1.583 0.717 1.018-1.511 1.018-2.986 1.018-4.461 0-71.14-0.011-142.275 0-213.413 0-9.759 2.54-12.728 13.326-15.695 85.669-23.563 171.34-47.123 256.999-70.702 0.685-0.192 1.319-0.532 1.976-0.802h6.271c7.55 2.813 9.947 7.85 9.939 14.816z m-29.405 65.506c2.618-0.722 3.375-1.749 3.377-3.977a3922.02 3922.02 0 0 1-0.064-26.291c0-4.85 0.006-9.701 0.006-14.55 0-1.942 0-3.881-0.002-5.821 0-0.864-0.142-1.739-0.231-2.768-1.099 0.182-1.983 0.252-2.823 0.48-76.721 21.108-153.417 42.234-230.146 63.271-2.649 0.731-3.308 1.826-3.308 4.009 0.051 8.834 0.058 17.564 0.058 26.295l-0.001 11.641c0 2.911 0.001 5.82 0.005 8.73 0 0.864 0.121 1.738 0.191 2.83 1.229-0.264 2.247-0.418 3.216-0.689 76.569-21.066 153.124-42.155 229.722-63.16M392.42 642.708c6.597-4.997 9.989-10.996 10.018-17.134 0.022-5.085-2.262-10.268-6.942-15.052-7.562-7.719-17.661-11.776-28.89-13.602-5.091-0.825-10.093-1.273-14.986-1.285-0.372 0-0.583 0-0.801 0.003-12.852 0.104-24.929 3.275-35.792 10.646a71.7 71.7 0 0 0-1.814 1.274c-6.807 4.982-10.191 11.204-10.23 17.445-0.04 6.44 3.485 12.899 10.493 18.033 11.389 8.336 24.815 11.348 39.24 11.766 14.757-0.441 28.333-3.487 39.704-12.094m256.375-68.596c10.54-5.922 16.227-13.699 16.166-21.628-0.052-6.568-4.047-13.241-12.497-19.044-10.493-7.203-22.79-10.11-35.823-10.31a86.334 86.334 0 0 0-1.438-0.011h-0.354c-14.788 0.054-28.467 3.525-39.869 12.396-6.308 4.902-9.581 10.79-9.625 16.77-0.034 4.955 2.146 9.973 6.661 14.546 11.763 11.912 27.579 15.153 44.643 15.297 0.411 0.004 0.819 0.007 1.23 0.007h0.444c10.998-0.404 21.26-2.847 30.462-8.023" fill="#E66676" /><path d="M428.653 619.831v16.8c0 24.843-13.604 41.14-38.833 50.586-12.803 4.788-25.524 7.222-38.035 7.222-17.092 0-33.792-4.538-49.792-13.813-16.204-9.396-25.076-23.731-25.076-38.433v-16.801c0 14.701 8.871 29.036 25.076 38.434 15.999 9.272 32.699 13.813 49.792 13.813 12.511 0 25.234-2.434 38.035-7.221 25.229-9.447 38.833-25.744 38.833-50.587z" fill="#DA4D5E" /><path d="M428.653 619.831v16.8c0 1.327-0.038 2.63-0.116 3.91v-16.8c0.078-1.28 0.116-2.582 0.116-3.91M428.537 623.741v16.8c-0.686 11.339-4.402 20.781-10.938 28.504v-16.8c6.536-7.723 10.255-17.165 10.938-28.504M417.599 652.247v16.8c-3.375 3.988-7.499 7.517-12.346 10.612v-16.801c4.847-3.096 8.973-6.625 12.346-10.611M405.253 662.858v16.801c-4.522 2.889-9.677 5.4-15.433 7.558l-0.696 0.257v-16.8l0.696-0.257c5.757-2.156 10.91-4.669 15.433-7.559" fill="#DA4D5E" /><path d="M389.125 670.674v16.8c-7.993 2.938-15.955 4.956-23.852 6.037v-16.8c7.897-1.081 15.857-3.101 23.852-6.037M365.271 676.71v16.8c-4.52 0.616-9.017 0.93-13.488 0.93-17.092 0-33.792-4.539-49.792-13.813-16.204-9.396-25.076-23.73-25.076-38.433v-16.8c0 14.7 8.871 29.035 25.076 38.433 15.999 9.272 32.699 13.813 49.792 13.813a99.773 99.773 0 0 0 13.488-0.93" fill="#DA4D5E" /></svg>